<svg width="232" height="43" viewBox="0 0 232 43" fill="none" xmlns="http://www.w3.org/2000/svg">
<path d="M56.8666 14.9954C57.382 9.55771 53.8347 4.86856 47.0493 2.08476C47.6928 2.63805 48.2762 3.26024 48.7896 3.94062C49.2563 4.5734 49.651 5.25829 49.966 5.98208C52.9979 8.02972 55.7266 11.2651 54.6169 16.0656C53.0888 22.6663 43.9446 25.5738 36.1101 24.9676C32.9933 24.7263 30.4465 24.417 28.1968 24.151C25.2965 23.7401 22.3744 23.5087 19.4467 23.4582C18.4947 23.4582 17.5063 23.4891 16.4633 23.5633C10.5571 23.984 6.24574 23.155 3.99606 21.1507C3.45381 20.6733 3.01278 20.0879 2.69998 19.4306C2.38718 18.7732 2.20919 18.0576 2.17691 17.3276C1.95862 14.0118 3.71713 11.5002 7.41 9.86702C9.09841 9.16562 10.8304 8.57872 12.5946 8.11014C14.6922 7.56983 16.7395 6.84327 18.713 5.93877C21.3492 4.61836 24.113 3.58173 26.9598 2.84566C28.0341 1.6917 29.2906 0.729794 30.6769 0C26.206 0.625679 21.8644 1.98788 17.8216 4.03342C15.9556 4.88697 14.0199 5.57214 12.0367 6.08106C10.179 6.57465 8.35574 7.19466 6.57926 7.93692C1.05511 10.3867 3.61432e-08 14.2716 0.109149 17.2039L0 16.9936C0 16.9936 0.509362 22.5612 2.59532 26.112C3.93543 28.4009 7.44638 31.6487 9.12606 32.787C14.4926 36.4368 31.8533 40.8291 44.4721 34.5191C54.0833 29.7062 57 17.6122 57 14.2345C56.9722 14.4909 56.9276 14.7451 56.8666 14.9954Z" fill="#46A857"/>
<path d="M25.3369 8.69873C24.8904 9.70478 22.9237 12.772 25.6144 14.9988C26.9477 16.1153 32.2084 17.4035 37.4089 17.4035C42.6093 17.4035 47.6952 16.1092 48.8113 12.1524C50.9228 4.64997 43.0558 3.88764e-05 37.433 3.88764e-05C37.0864 -0.000964811 36.74 0.0174667 36.3953 0.0552493C30.7726 0.6871 27.376 4.07946 25.3369 8.69873Z" fill="#46A857"/>
<path d="M73.8856 17V3.76H79.8456C81.259 3.76 82.3723 4.14667 83.1856 4.92C83.999 5.68 84.4056 6.71333 84.4056 8.02C84.4056 9.32667 83.999 10.3667 83.1856 11.14C82.3723 11.9 81.259 12.28 79.8456 12.28H75.3856V17H73.8856ZM75.3856 10.88H79.7456C80.7856 10.88 81.5723 10.6267 82.1056 10.12C82.639 9.61333 82.9056 8.91333 82.9056 8.02C82.9056 7.14 82.639 6.44667 82.1056 5.94C81.5723 5.43333 80.7856 5.18 79.7456 5.18H75.3856V10.88ZM86.1242 17V7H87.6242V9.46C87.6776 9.28667 87.7776 9.06 87.9242 8.78C88.0842 8.48667 88.3109 8.19333 88.6042 7.9C88.8976 7.60667 89.2642 7.36 89.7042 7.16C90.1576 6.94667 90.6909 6.84 91.3042 6.84H91.4042V8.34H91.2242C90.4776 8.34 89.8309 8.54667 89.2842 8.96C88.7509 9.36 88.3376 9.88667 88.0442 10.54C87.7642 11.18 87.6242 11.8667 87.6242 12.6V17H86.1242ZM97.1048 17.16C96.0915 17.16 95.2115 16.9333 94.4648 16.48C93.7182 16.0133 93.1448 15.3867 92.7448 14.6C92.3448 13.8133 92.1448 12.9467 92.1448 12C92.1448 11.04 92.3448 10.1733 92.7448 9.4C93.1448 8.61333 93.7182 7.99333 94.4648 7.54C95.2115 7.07333 96.0915 6.84 97.1048 6.84C98.1315 6.84 99.0115 7.07333 99.7448 7.54C100.492 7.99333 101.065 8.61333 101.465 9.4C101.865 10.1733 102.065 11.04 102.065 12C102.065 12.9467 101.865 13.8133 101.465 14.6C101.065 15.3867 100.492 16.0133 99.7448 16.48C99.0115 16.9333 98.1315 17.16 97.1048 17.16ZM97.1048 15.8C97.8515 15.8 98.4782 15.6267 98.9848 15.28C99.5048 14.9333 99.8982 14.4733 100.165 13.9C100.432 13.3133 100.565 12.68 100.565 12C100.565 11.3067 100.432 10.6733 100.165 10.1C99.8982 9.52667 99.5048 9.06667 98.9848 8.72C98.4782 8.37333 97.8515 8.2 97.1048 8.2C96.3715 8.2 95.7448 8.37333 95.2248 8.72C94.7048 9.06667 94.3115 9.52667 94.0448 10.1C93.7782 10.6733 93.6448 11.3067 93.6448 12C93.6448 12.68 93.7782 13.3133 94.0448 13.9C94.3115 14.4733 94.7048 14.9333 95.2248 15.28C95.7448 15.6267 96.3715 15.8 97.1048 15.8ZM103.994 5.32V3.36H105.614V5.32H103.994ZM104.054 20.96V7H105.554V20.96H104.054ZM112.595 17.16C111.582 17.16 110.695 16.9333 109.935 16.48C109.175 16.0133 108.582 15.3867 108.155 14.6C107.742 13.8133 107.535 12.9467 107.535 12C107.535 11.04 107.735 10.1733 108.135 9.4C108.535 8.61333 109.109 7.99333 109.855 7.54C110.602 7.07333 111.482 6.84 112.495 6.84C113.522 6.84 114.402 7.07333 115.135 7.54C115.882 7.99333 116.455 8.61333 116.855 9.4C117.255 10.1733 117.455 11.04 117.455 12V12.6H109.075C109.155 13.1867 109.342 13.7267 109.635 14.22C109.942 14.7 110.349 15.0867 110.855 15.38C111.362 15.66 111.949 15.8 112.615 15.8C113.322 15.8 113.915 15.6467 114.395 15.34C114.875 15.02 115.249 14.6133 115.515 14.12H117.155C116.809 15.0133 116.255 15.7467 115.495 16.32C114.749 16.88 113.782 17.16 112.595 17.16ZM109.095 11.2H115.895C115.762 10.3467 115.402 9.63333 114.815 9.06C114.229 8.48667 113.455 8.2 112.495 8.2C111.535 8.2 110.762 8.48667 110.175 9.06C109.602 9.63333 109.242 10.3467 109.095 11.2ZM120.368 17V8.32H118.328V7H120.368V3.42H121.868V7H124.168V8.32H121.868V17H120.368ZM129.956 17.16C128.943 17.16 128.063 16.9333 127.316 16.48C126.57 16.0133 125.996 15.3867 125.596 14.6C125.196 13.8133 124.996 12.9467 124.996 12C124.996 11.04 125.196 10.1733 125.596 9.4C125.996 8.61333 126.57 7.99333 127.316 7.54C128.063 7.07333 128.943 6.84 129.956 6.84C130.983 6.84 131.863 7.07333 132.596 7.54C133.343 7.99333 133.916 8.61333 134.316 9.4C134.716 10.1733 134.916 11.04 134.916 12C134.916 12.9467 134.716 13.8133 134.316 14.6C133.916 15.3867 133.343 16.0133 132.596 16.48C131.863 16.9333 130.983 17.16 129.956 17.16ZM129.956 15.8C130.703 15.8 131.33 15.6267 131.836 15.28C132.356 14.9333 132.75 14.4733 133.016 13.9C133.283 13.3133 133.416 12.68 133.416 12C133.416 11.3067 133.283 10.6733 133.016 10.1C132.75 9.52667 132.356 9.06667 131.836 8.72C131.33 8.37333 130.703 8.2 129.956 8.2C129.223 8.2 128.596 8.37333 128.076 8.72C127.556 9.06667 127.163 9.52667 126.896 10.1C126.63 10.6733 126.496 11.3067 126.496 12C126.496 12.68 126.63 13.3133 126.896 13.9C127.163 14.4733 127.556 14.9333 128.076 15.28C128.596 15.6267 129.223 15.8 129.956 15.8ZM140.529 17L146.149 3.76H148.029L153.649 17H151.989L150.369 13.16H143.809L142.189 17H140.529ZM144.389 11.78H149.789L147.089 5.32L144.389 11.78ZM160.091 17.16C159.264 17.16 158.551 17 157.951 16.68C157.364 16.36 156.884 15.9333 156.511 15.4V17H155.011V3H156.511V8.62C156.884 8.07333 157.364 7.64 157.951 7.32C158.551 7 159.264 6.84 160.091 6.84C161.064 6.84 161.911 7.07333 162.631 7.54C163.364 7.99333 163.931 8.61333 164.331 9.4C164.731 10.1733 164.931 11.04 164.931 12C164.931 12.9467 164.731 13.8133 164.331 14.6C163.931 15.3867 163.364 16.0133 162.631 16.48C161.911 16.9333 161.064 17.16 160.091 17.16ZM159.891 15.8C160.638 15.8 161.271 15.6267 161.791 15.28C162.324 14.9333 162.731 14.4733 163.011 13.9C163.291 13.3133 163.431 12.68 163.431 12C163.431 11.3067 163.291 10.6733 163.011 10.1C162.731 9.52667 162.324 9.06667 161.791 8.72C161.271 8.37333 160.638 8.2 159.891 8.2C159.158 8.2 158.531 8.37333 158.011 8.72C157.491 9.06667 157.098 9.52667 156.831 10.1C156.564 10.6733 156.431 11.3067 156.431 12C156.431 12.68 156.564 13.3133 156.831 13.9C157.098 14.4733 157.491 14.9333 158.011 15.28C158.531 15.6267 159.158 15.8 159.891 15.8ZM171.125 17.16C170.152 17.16 169.299 16.9333 168.565 16.48C167.845 16.0133 167.285 15.3867 166.885 14.6C166.485 13.8133 166.285 12.9467 166.285 12C166.285 11.04 166.485 10.1733 166.885 9.4C167.285 8.61333 167.845 7.99333 168.565 7.54C169.299 7.07333 170.152 6.84 171.125 6.84C171.952 6.84 172.659 7 173.245 7.32C173.845 7.64 174.332 8.07333 174.705 8.62V7H176.205V17H174.705V15.4C174.332 15.9333 173.845 16.36 173.245 16.68C172.659 17 171.952 17.16 171.125 17.16ZM171.325 15.8C172.072 15.8 172.699 15.6267 173.205 15.28C173.725 14.9333 174.119 14.4733 174.385 13.9C174.652 13.3133 174.785 12.68 174.785 12C174.785 11.3067 174.652 10.6733 174.385 10.1C174.119 9.52667 173.725 9.06667 173.205 8.72C172.699 8.37333 172.072 8.2 171.325 8.2C170.592 8.2 169.959 8.37333 169.425 8.72C168.892 9.06667 168.485 9.52667 168.205 10.1C167.925 10.6733 167.785 11.3067 167.785 12C167.785 12.68 167.925 13.3133 168.205 13.9C168.485 14.4733 168.892 14.9333 169.425 15.28C169.959 15.6267 170.592 15.8 171.325 15.8ZM183.1 17.16C182.1 17.16 181.233 16.9333 180.5 16.48C179.767 16.0133 179.193 15.3867 178.78 14.6C178.38 13.8133 178.18 12.9467 178.18 12C178.18 11.04 178.38 10.1733 178.78 9.4C179.193 8.61333 179.767 7.99333 180.5 7.54C181.233 7.07333 182.1 6.84 183.1 6.84C184.287 6.84 185.293 7.14667 186.12 7.76C186.96 8.37333 187.527 9.16667 187.82 10.14H186.2C185.973 9.56667 185.607 9.1 185.1 8.74C184.607 8.38 184.007 8.2 183.3 8.2C182.567 8.2 181.927 8.37333 181.38 8.72C180.833 9.06667 180.413 9.52667 180.12 10.1C179.827 10.6733 179.68 11.3067 179.68 12C179.68 12.68 179.827 13.3133 180.12 13.9C180.413 14.4733 180.833 14.9333 181.38 15.28C181.927 15.6267 182.567 15.8 183.3 15.8C184.007 15.8 184.607 15.62 185.1 15.26C185.607 14.9 185.973 14.4333 186.2 13.86H187.82C187.527 14.8333 186.96 15.6267 186.12 16.24C185.293 16.8533 184.287 17.16 183.1 17.16ZM193.899 17.16C192.926 17.16 192.072 16.9333 191.339 16.48C190.619 16.0133 190.059 15.3867 189.659 14.6C189.259 13.8133 189.059 12.9467 189.059 12C189.059 11.04 189.259 10.1733 189.659 9.4C190.059 8.61333 190.619 7.99333 191.339 7.54C192.072 7.07333 192.926 6.84 193.899 6.84C194.726 6.84 195.432 7 196.019 7.32C196.619 7.64 197.106 8.07333 197.479 8.62V7H198.979V17H197.479V15.4C197.106 15.9333 196.619 16.36 196.019 16.68C195.432 17 194.726 17.16 193.899 17.16ZM194.099 15.8C194.846 15.8 195.472 15.6267 195.979 15.28C196.499 14.9333 196.892 14.4733 197.159 13.9C197.426 13.3133 197.559 12.68 197.559 12C197.559 11.3067 197.426 10.6733 197.159 10.1C196.892 9.52667 196.499 9.06667 195.979 8.72C195.472 8.37333 194.846 8.2 194.099 8.2C193.366 8.2 192.732 8.37333 192.199 8.72C191.666 9.06667 191.259 9.52667 190.979 10.1C190.699 10.6733 190.559 11.3067 190.559 12C190.559 12.68 190.699 13.3133 190.979 13.9C191.259 14.4733 191.666 14.9333 192.199 15.28C192.732 15.6267 193.366 15.8 194.099 15.8ZM202.653 17V8.32H200.613V7H202.653V3.42H204.153V7H206.453V8.32H204.153V17H202.653ZM212.342 17.16C211.328 17.16 210.442 16.9333 209.682 16.48C208.922 16.0133 208.328 15.3867 207.902 14.6C207.488 13.8133 207.282 12.9467 207.282 12C207.282 11.04 207.482 10.1733 207.882 9.4C208.282 8.61333 208.855 7.99333 209.602 7.54C210.348 7.07333 211.228 6.84 212.242 6.84C213.268 6.84 214.148 7.07333 214.882 7.54C215.628 7.99333 216.202 8.61333 216.602 9.4C217.002 10.1733 217.202 11.04 217.202 12V12.6H208.822C208.902 13.1867 209.088 13.7267 209.382 14.22C209.688 14.7 210.095 15.0867 210.602 15.38C211.108 15.66 211.695 15.8 212.362 15.8C213.068 15.8 213.662 15.6467 214.142 15.34C214.622 15.02 214.995 14.6133 215.262 14.12H216.902C216.555 15.0133 216.002 15.7467 215.242 16.32C214.495 16.88 213.528 17.16 212.342 17.16ZM208.842 11.2H215.642C215.508 10.3467 215.148 9.63333 214.562 9.06C213.975 8.48667 213.202 8.2 212.242 8.2C211.282 8.2 210.508 8.48667 209.922 9.06C209.348 9.63333 208.988 10.3467 208.842 11.2Z" fill="#35495E"/>
<line x1="61" y1="29.625" x2="88" y2="29.625" stroke="#46A857" stroke-width="0.75"/>
<path d="M94.72 33.12C94.2533 33.12 93.8267 33.0333 93.44 32.86C93.0533 32.68 92.7133 32.44 92.42 32.14L92.89 31.6C93.1233 31.8467 93.4 32.04 93.72 32.18C94.0467 32.32 94.3833 32.39 94.73 32.39C95.1633 32.39 95.5 32.2933 95.74 32.1C95.98 31.9 96.1 31.64 96.1 31.32C96.1 31.0933 96.05 30.9133 95.95 30.78C95.8567 30.6467 95.7267 30.5333 95.56 30.44C95.4 30.3467 95.2167 30.2533 95.01 30.16L94.07 29.75C93.8567 29.6567 93.6467 29.54 93.44 29.4C93.24 29.26 93.0733 29.0833 92.94 28.87C92.8067 28.65 92.74 28.38 92.74 28.06C92.74 27.7267 92.8267 27.43 93 27.17C93.18 26.9033 93.4233 26.6967 93.73 26.55C94.0433 26.3967 94.4 26.32 94.8 26.32C95.2 26.32 95.5667 26.3933 95.9 26.54C96.2333 26.6867 96.5133 26.8767 96.74 27.11L96.29 27.65C96.0833 27.47 95.8567 27.3267 95.61 27.22C95.3633 27.1067 95.0933 27.05 94.8 27.05C94.4333 27.05 94.1367 27.1367 93.91 27.31C93.69 27.4833 93.58 27.7167 93.58 28.01C93.58 28.2167 93.6333 28.3867 93.74 28.52C93.8467 28.6533 93.9833 28.7633 94.15 28.85C94.3233 28.9367 94.4967 29.02 94.67 29.1L95.6 29.5C95.86 29.6133 96.09 29.7433 96.29 29.89C96.4967 30.0367 96.6567 30.22 96.77 30.44C96.89 30.66 96.95 30.93 96.95 31.25C96.95 31.5967 96.86 31.9133 96.68 32.2C96.5067 32.48 96.25 32.7033 95.91 32.87C95.5767 33.0367 95.18 33.12 94.72 33.12ZM100.662 33.12C100.115 33.12 99.6285 32.98 99.2018 32.7C98.7818 32.42 98.4518 32.0233 98.2118 31.51C97.9785 30.9967 97.8618 30.39 97.8618 29.69C97.8618 28.99 97.9785 28.39 98.2118 27.89C98.4518 27.3833 98.7818 26.9967 99.2018 26.73C99.6285 26.4567 100.115 26.32 100.662 26.32C101.215 26.32 101.702 26.4567 102.122 26.73C102.542 26.9967 102.872 27.3833 103.112 27.89C103.352 28.39 103.472 28.99 103.472 29.69C103.472 30.39 103.352 30.9967 103.112 31.51C102.872 32.0233 102.542 32.42 102.122 32.7C101.702 32.98 101.215 33.12 100.662 33.12ZM100.662 32.38C101.055 32.38 101.395 32.27 101.682 32.05C101.975 31.83 102.202 31.52 102.362 31.12C102.522 30.7133 102.602 30.2367 102.602 29.69C102.602 29.15 102.522 28.6833 102.362 28.29C102.202 27.8967 101.975 27.5933 101.682 27.38C101.395 27.16 101.055 27.05 100.662 27.05C100.275 27.05 99.9351 27.16 99.6418 27.38C99.3485 27.5933 99.1218 27.8967 98.9618 28.29C98.8018 28.6833 98.7218 29.15 98.7218 29.69C98.7218 30.2367 98.8018 30.7133 98.9618 31.12C99.1218 31.52 99.3485 31.83 99.6418 32.05C99.9351 32.27 100.275 32.38 100.662 32.38ZM104.882 33V26.44H105.712V32.29H108.582V33H104.882ZM111.783 33.12C111.443 33.12 111.129 33.0733 110.843 32.98C110.563 32.88 110.316 32.7233 110.103 32.51C109.889 32.29 109.723 32 109.603 31.64C109.483 31.28 109.423 30.8433 109.423 30.33V26.44H110.253V30.35C110.253 30.8633 110.319 31.27 110.453 31.57C110.593 31.8633 110.776 32.0733 111.003 32.2C111.236 32.32 111.496 32.38 111.783 32.38C112.069 32.38 112.329 32.32 112.563 32.2C112.803 32.0733 112.993 31.8633 113.133 31.57C113.273 31.27 113.343 30.8633 113.343 30.35V26.44H114.133V30.33C114.133 30.8433 114.073 31.28 113.953 31.64C113.839 32 113.676 32.29 113.463 32.51C113.249 32.7233 112.999 32.88 112.713 32.98C112.426 33.0733 112.116 33.12 111.783 33.12ZM118.388 33.12C117.841 33.12 117.348 32.9867 116.908 32.72C116.475 32.4467 116.135 32.0567 115.888 31.55C115.641 31.0433 115.518 30.4333 115.518 29.72C115.518 29.1933 115.588 28.72 115.728 28.3C115.875 27.88 116.081 27.5233 116.348 27.23C116.615 26.93 116.921 26.7033 117.268 26.55C117.621 26.3967 118.008 26.32 118.428 26.32C118.821 26.32 119.171 26.4 119.478 26.56C119.791 26.72 120.041 26.91 120.228 27.13L119.778 27.64C119.605 27.4533 119.405 27.31 119.178 27.21C118.958 27.1033 118.711 27.05 118.438 27.05C118.031 27.05 117.671 27.16 117.358 27.38C117.051 27.5933 116.811 27.9 116.638 28.3C116.465 28.6933 116.378 29.16 116.378 29.7C116.378 30.2533 116.461 30.73 116.628 31.13C116.795 31.53 117.035 31.84 117.348 32.06C117.661 32.2733 118.028 32.38 118.448 32.38C118.755 32.38 119.028 32.3233 119.268 32.21C119.515 32.09 119.738 31.9167 119.938 31.69L120.378 32.18C120.118 32.48 119.828 32.7133 119.508 32.88C119.188 33.04 118.815 33.12 118.388 33.12ZM117.568 35.26L117.488 34.86C117.908 34.8267 118.195 34.77 118.348 34.69C118.501 34.6167 118.578 34.5067 118.578 34.36C118.578 34.2267 118.521 34.1233 118.408 34.05C118.295 33.9767 118.095 33.92 117.808 33.88L118.248 32.97H118.778L118.488 33.64C118.721 33.6933 118.901 33.7733 119.028 33.88C119.155 33.9867 119.218 34.1433 119.218 34.35C119.218 34.6367 119.075 34.8533 118.788 35C118.508 35.1467 118.101 35.2333 117.568 35.26ZM123.738 33.12C123.191 33.12 122.705 32.98 122.278 32.7C121.858 32.42 121.528 32.0233 121.288 31.51C121.055 30.9967 120.938 30.39 120.938 29.69C120.938 28.99 121.055 28.39 121.288 27.89C121.528 27.3833 121.858 26.9967 122.278 26.73C122.705 26.4567 123.191 26.32 123.738 26.32C124.291 26.32 124.778 26.4567 125.198 26.73C125.618 26.9967 125.948 27.3833 126.188 27.89C126.428 28.39 126.548 28.99 126.548 29.69C126.548 30.39 126.428 30.9967 126.188 31.51C125.948 32.0233 125.618 32.42 125.198 32.7C124.778 32.98 124.291 33.12 123.738 33.12ZM123.738 32.38C124.131 32.38 124.471 32.27 124.758 32.05C125.051 31.83 125.278 31.52 125.438 31.12C125.598 30.7133 125.678 30.2367 125.678 29.69C125.678 29.15 125.598 28.6833 125.438 28.29C125.278 27.8967 125.051 27.5933 124.758 27.38C124.471 27.16 124.131 27.05 123.738 27.05C123.351 27.05 123.011 27.16 122.718 27.38C122.425 27.5933 122.198 27.8967 122.038 28.29C121.878 28.6833 121.798 29.15 121.798 29.69C121.798 30.2367 121.878 30.7133 122.038 31.12C122.198 31.52 122.425 31.83 122.718 32.05C123.011 32.27 123.351 32.38 123.738 32.38ZM124.488 25.91C124.301 25.91 124.141 25.8767 124.008 25.81C123.875 25.7367 123.755 25.6533 123.648 25.56C123.541 25.4667 123.438 25.3833 123.338 25.31C123.238 25.2367 123.128 25.2 123.008 25.2C122.881 25.2 122.775 25.2567 122.688 25.37C122.601 25.4833 122.548 25.6467 122.528 25.86L121.968 25.82C121.988 25.4333 122.088 25.1333 122.268 24.92C122.448 24.7 122.688 24.59 122.988 24.59C123.175 24.59 123.335 24.6267 123.468 24.7C123.608 24.7733 123.731 24.8567 123.838 24.95C123.945 25.0367 124.045 25.1167 124.138 25.19C124.238 25.2633 124.348 25.3 124.468 25.3C124.595 25.3 124.701 25.2433 124.788 25.13C124.875 25.0167 124.928 24.8533 124.948 24.64L125.508 24.68C125.495 25.0667 125.395 25.37 125.208 25.59C125.028 25.8033 124.788 25.91 124.488 25.91ZM127.959 33V26.44H131.739V27.14H128.789V29.2H131.279V29.91H128.789V32.29H131.839V33H127.959ZM135.052 33.12C134.585 33.12 134.159 33.0333 133.772 32.86C133.385 32.68 133.045 32.44 132.752 32.14L133.222 31.6C133.455 31.8467 133.732 32.04 134.052 32.18C134.379 32.32 134.715 32.39 135.062 32.39C135.495 32.39 135.832 32.2933 136.072 32.1C136.312 31.9 136.432 31.64 136.432 31.32C136.432 31.0933 136.382 30.9133 136.282 30.78C136.189 30.6467 136.059 30.5333 135.892 30.44C135.732 30.3467 135.549 30.2533 135.342 30.16L134.402 29.75C134.189 29.6567 133.979 29.54 133.772 29.4C133.572 29.26 133.405 29.0833 133.272 28.87C133.139 28.65 133.072 28.38 133.072 28.06C133.072 27.7267 133.159 27.43 133.332 27.17C133.512 26.9033 133.755 26.6967 134.062 26.55C134.375 26.3967 134.732 26.32 135.132 26.32C135.532 26.32 135.899 26.3933 136.232 26.54C136.565 26.6867 136.845 26.8767 137.072 27.11L136.622 27.65C136.415 27.47 136.189 27.3267 135.942 27.22C135.695 27.1067 135.425 27.05 135.132 27.05C134.765 27.05 134.469 27.1367 134.242 27.31C134.022 27.4833 133.912 27.7167 133.912 28.01C133.912 28.2167 133.965 28.3867 134.072 28.52C134.179 28.6533 134.315 28.7633 134.482 28.85C134.655 28.9367 134.829 29.02 135.002 29.1L135.932 29.5C136.192 29.6133 136.422 29.7433 136.622 29.89C136.829 30.0367 136.989 30.22 137.102 30.44C137.222 30.66 137.282 30.93 137.282 31.25C137.282 31.5967 137.192 31.9133 137.012 32.2C136.839 32.48 136.582 32.7033 136.242 32.87C135.909 33.0367 135.512 33.12 135.052 33.12ZM140.576 33V26.44H142.216C142.889 26.44 143.456 26.5667 143.916 26.82C144.376 27.0733 144.722 27.4433 144.956 27.93C145.196 28.41 145.316 28.9967 145.316 29.69C145.316 30.3833 145.196 30.98 144.956 31.48C144.722 31.9733 144.379 32.35 143.926 32.61C143.472 32.87 142.916 33 142.256 33H140.576ZM141.406 32.32H142.156C142.669 32.32 143.096 32.2167 143.436 32.01C143.776 31.7967 144.029 31.4967 144.196 31.11C144.362 30.7233 144.446 30.25 144.446 29.69C144.446 29.1433 144.362 28.6767 144.196 28.29C144.029 27.9033 143.776 27.6133 143.436 27.42C143.096 27.22 142.669 27.12 142.156 27.12H141.406V32.32ZM146.728 33V26.44H150.508V27.14H147.558V29.2H150.048V29.91H147.558V32.29H150.608V33H146.728ZM155.824 33.12C155.357 33.12 154.93 33.0333 154.544 32.86C154.157 32.68 153.817 32.44 153.524 32.14L153.994 31.6C154.227 31.8467 154.504 32.04 154.824 32.18C155.15 32.32 155.487 32.39 155.834 32.39C156.267 32.39 156.604 32.2933 156.844 32.1C157.084 31.9 157.204 31.64 157.204 31.32C157.204 31.0933 157.154 30.9133 157.054 30.78C156.96 30.6467 156.83 30.5333 156.664 30.44C156.504 30.3467 156.32 30.2533 156.114 30.16L155.174 29.75C154.96 29.6567 154.75 29.54 154.544 29.4C154.344 29.26 154.177 29.0833 154.044 28.87C153.91 28.65 153.844 28.38 153.844 28.06C153.844 27.7267 153.93 27.43 154.104 27.17C154.284 26.9033 154.527 26.6967 154.834 26.55C155.147 26.3967 155.504 26.32 155.904 26.32C156.304 26.32 156.67 26.3933 157.004 26.54C157.337 26.6867 157.617 26.8767 157.844 27.11L157.394 27.65C157.187 27.47 156.96 27.3267 156.714 27.22C156.467 27.1067 156.197 27.05 155.904 27.05C155.537 27.05 155.24 27.1367 155.014 27.31C154.794 27.4833 154.684 27.7167 154.684 28.01C154.684 28.2167 154.737 28.3867 154.844 28.52C154.95 28.6533 155.087 28.7633 155.254 28.85C155.427 28.9367 155.6 29.02 155.774 29.1L156.704 29.5C156.964 29.6133 157.194 29.7433 157.394 29.89C157.6 30.0367 157.76 30.22 157.874 30.44C157.994 30.66 158.054 30.93 158.054 31.25C158.054 31.5967 157.964 31.9133 157.784 32.2C157.61 32.48 157.354 32.7033 157.014 32.87C156.68 33.0367 156.284 33.12 155.824 33.12ZM161.765 33.12C161.219 33.12 160.732 32.98 160.305 32.7C159.885 32.42 159.555 32.0233 159.315 31.51C159.082 30.9967 158.965 30.39 158.965 29.69C158.965 28.99 159.082 28.39 159.315 27.89C159.555 27.3833 159.885 26.9967 160.305 26.73C160.732 26.4567 161.219 26.32 161.765 26.32C162.319 26.32 162.805 26.4567 163.225 26.73C163.645 26.9967 163.975 27.3833 164.215 27.89C164.455 28.39 164.575 28.99 164.575 29.69C164.575 30.39 164.455 30.9967 164.215 31.51C163.975 32.0233 163.645 32.42 163.225 32.7C162.805 32.98 162.319 33.12 161.765 33.12ZM161.765 32.38C162.159 32.38 162.499 32.27 162.785 32.05C163.079 31.83 163.305 31.52 163.465 31.12C163.625 30.7133 163.705 30.2367 163.705 29.69C163.705 29.15 163.625 28.6833 163.465 28.29C163.305 27.8967 163.079 27.5933 162.785 27.38C162.499 27.16 162.159 27.05 161.765 27.05C161.379 27.05 161.039 27.16 160.745 27.38C160.452 27.5933 160.225 27.8967 160.065 28.29C159.905 28.6833 159.825 29.15 159.825 29.69C159.825 30.2367 159.905 30.7133 160.065 31.12C160.225 31.52 160.452 31.83 160.745 32.05C161.039 32.27 161.379 32.38 161.765 32.38ZM165.986 33V26.44H169.766V27.14H166.816V29.36H169.316V30.06H166.816V33H165.986ZM172.287 33V27.15H170.307V26.44H175.107V27.15H173.127V33H172.287ZM176.979 33L175.619 26.44H176.509L177.179 30.01C177.245 30.3633 177.309 30.7167 177.369 31.07C177.429 31.4233 177.485 31.7867 177.539 32.16H177.579C177.645 31.7867 177.715 31.4233 177.789 31.07C177.869 30.7167 177.949 30.3633 178.029 30.01L178.919 26.44H179.759L180.619 30.01C180.699 30.3567 180.779 30.71 180.859 31.07C180.939 31.4233 181.015 31.7867 181.089 32.16H181.129C181.182 31.7867 181.239 31.4233 181.299 31.07C181.359 30.7167 181.419 30.3633 181.479 30.01L182.169 26.44H183.019L181.649 33H180.579L179.639 29.06C179.585 28.8133 179.532 28.5667 179.479 28.32C179.432 28.0667 179.385 27.8 179.339 27.52H179.299C179.259 27.8 179.212 28.0667 179.159 28.32C179.112 28.5667 179.062 28.8133 179.009 29.06L178.049 33H176.979ZM183.28 33L185.5 26.44H186.44L188.66 33H187.78L186.63 29.33C186.51 28.9633 186.397 28.6 186.29 28.24C186.183 27.8733 186.077 27.5 185.97 27.12H185.93C185.83 27.5 185.727 27.8733 185.62 28.24C185.513 28.6 185.4 28.9633 185.28 29.33L184.12 33H183.28ZM184.44 31V30.34H187.47V31H184.44ZM189.58 33V26.44H191.63C192.076 26.44 192.473 26.5 192.82 26.62C193.166 26.7333 193.436 26.9267 193.63 27.2C193.83 27.4667 193.93 27.8267 193.93 28.28C193.93 28.72 193.83 29.0833 193.63 29.37C193.436 29.6567 193.166 29.8733 192.82 30.02C192.473 30.16 192.076 30.23 191.63 30.23H190.41V33H189.58ZM190.41 29.55H191.51C192.023 29.55 192.416 29.4467 192.69 29.24C192.963 29.0267 193.1 28.7067 193.1 28.28C193.1 27.8533 192.963 27.5533 192.69 27.38C192.416 27.2 192.023 27.11 191.51 27.11H190.41V29.55ZM193.18 33L191.47 30L192.12 29.56L194.12 33H193.18ZM195.273 33V26.44H199.053V27.14H196.103V29.2H198.593V29.91H196.103V32.29H199.153V33H195.273Z" fill="#46A857"/>
<line x1="205" y1="29.625" x2="232" y2="29.625" stroke="#46A857" stroke-width="0.75"/>
</svg>
